<svg width="55" height="55" viewBox="0 0 55 55" fill="none" xmlns="http://www.w3.org/2000/svg">
<circle cx="27.5" cy="27.5" r="27.5" fill="#32E0C4"/>
<path d="M43.8129 35.8025H30.0555V35.0233C30.1962 34.9649 30.3307 34.886 30.4529 34.7837L31.3003 34.0744C31.5415 33.8726 31.6798 33.5765 31.6798 33.2621V31.1031C31.6798 30.5189 31.2045 30.0436 30.6203 30.0436H28.319C27.7348 30.0436 27.2595 30.5189 27.2595 31.1031V33.2621C27.2595 33.5765 27.3979 33.8727 27.639 34.0744L28.4865 34.7838C28.6086 34.886 28.7429 34.9648 28.8835 35.0232V35.8025H22.5432C21.9033 35.8025 21.3826 36.3231 21.3826 36.963V38.6072C21.3826 39.2472 21.9033 39.7678 22.5432 39.7678H28.8835V41.366H22.5432C21.9033 41.366 21.3826 41.8866 21.3826 42.5265V44.1707C21.3826 44.8107 21.9033 45.3313 22.5432 45.3313H28.8835V47.4141C28.8835 47.7378 29.1458 48 29.4694 48C29.7931 48 30.0554 47.7378 30.0554 47.4141V45.3315H43.8129C44.4528 45.3315 44.9735 44.8108 44.9735 44.1709V42.5266C44.9735 41.8867 44.4528 41.3661 43.8129 41.3661H30.0555V39.7679H43.813C44.4529 39.7679 44.9736 39.2472 44.9736 38.6073V36.9631C44.9736 36.3231 44.4529 35.8025 43.8129 35.8025ZM28.4314 33.2095V31.2156H30.5078V33.2095L29.7007 33.885C29.6344 33.9405 29.5532 33.9684 29.4719 33.969C29.4711 33.969 29.4703 33.9689 29.4694 33.9689C29.4687 33.9689 29.468 33.969 29.4672 33.969C29.3859 33.9684 29.3048 33.9406 29.2386 33.8851L28.4314 33.2095ZM22.5544 44.1596V42.5379H28.8836V44.1596H22.5544ZM43.8017 44.1596H36.0835V42.5379H43.8017V44.1596ZM34.9116 42.5379V44.1596H30.0555V42.5379H34.9116ZM22.5544 38.596V36.9743H28.8836V38.596H22.5544ZM30.0555 36.9743H38.4445V38.596H30.0555V36.9743ZM43.8017 38.596H39.6164V36.9743H43.8017V38.596Z" fill="#EEEEEE"/>
<path d="M17.9759 35.8024H12.1591C11.5345 35.8024 11.0264 36.3105 11.0264 36.935V38.6352C11.0264 39.2598 11.5345 39.7678 12.1591 39.7678H17.9759C18.6005 39.7678 19.1085 39.2598 19.1085 38.6352V36.935C19.1085 36.3105 18.6005 35.8024 17.9759 35.8024ZM17.9366 38.5959H12.1983V36.9743H17.9366V38.5959Z" fill="#EEEEEE"/>
<path d="M17.9759 41.366H12.1591C11.5345 41.366 11.0264 41.8741 11.0264 42.4986V44.1988C11.0264 44.8234 11.5345 45.3314 12.1591 45.3314H17.9759C18.6005 45.3314 19.1085 44.8234 19.1085 44.1988V42.4986C19.1085 41.8741 18.6005 41.366 17.9759 41.366ZM17.9366 44.1595H12.1983V42.5379H17.9366V44.1595Z" fill="#EEEEEE"/>
<path d="M42.1859 8H13.8141C12.2769 8 11.0264 9.25055 11.0264 10.7877V25.6344C11.0264 27.1715 12.2769 28.422 13.8141 28.422H17.7774C18.1011 28.422 18.3634 28.1598 18.3634 27.8361C18.3634 27.5124 18.1011 27.2502 17.7774 27.2502H13.8141C12.9232 27.2502 12.1983 26.5254 12.1983 25.6344V10.7877C12.1983 9.89664 12.9232 9.17188 13.8141 9.17188H42.1859C43.0768 9.17188 43.8017 9.89664 43.8017 10.7877V25.6344C43.8017 26.5253 43.0769 27.2502 42.1859 27.2502H20.1212C19.7975 27.2502 19.5352 27.5124 19.5352 27.8361C19.5352 28.1598 19.7975 28.422 20.1212 28.422H42.1859C43.723 28.422 44.9736 27.1715 44.9736 25.6344V10.7877C44.9736 9.25055 43.723 8 42.1859 8V8Z" fill="#EEEEEE"/>
<path d="M40.063 17.5914C40.063 15.7746 38.5848 14.2965 36.768 14.2965C34.9513 14.2965 33.4732 15.7746 33.4732 17.5914C33.4732 19.4082 34.9513 20.8864 36.768 20.8864C38.5848 20.8864 40.063 19.4081 40.063 17.5914ZM34.6452 17.5914C34.6452 16.4208 35.5975 15.4684 36.7681 15.4684C37.9388 15.4684 38.8912 16.4207 38.8912 17.5914C38.8912 18.7621 37.9388 19.7145 36.7681 19.7145C35.5975 19.7144 34.6452 18.7621 34.6452 17.5914Z" fill="#EEEEEE"/>
<path d="M31.5659 16.3816C29.3634 16.3816 27.2497 17.3135 25.7524 18.9104C24.8947 17.4375 23.7005 16.1842 22.257 15.2546C20.5156 14.1329 18.4955 13.54 16.4151 13.54C16.0914 13.54 15.8291 13.8023 15.8291 14.126C15.8291 14.4496 16.0914 14.7119 16.4151 14.7119C18.27 14.7119 20.0707 15.2403 21.6225 16.2398C23.1523 17.2253 24.3578 18.6237 25.1154 20.2076C25.3067 20.6046 25.8522 20.6529 26.1133 20.3025C27.3921 18.5812 29.4305 17.5535 31.566 17.5535C31.8897 17.5535 32.1519 17.2912 32.1519 16.9675C32.1519 16.6439 31.8895 16.3816 31.5659 16.3816Z" fill="#EEEEEE"/>
<path d="M31.5659 18.8235C30.4611 18.8235 29.3939 19.1494 28.4792 19.7665C27.3819 20.5084 26.5869 21.6168 26.2406 22.8871C26.1555 23.1993 26.3397 23.5214 26.6519 23.6065C26.7034 23.6206 26.7553 23.6273 26.8064 23.6273C27.0641 23.6273 27.3002 23.456 27.3713 23.1954C27.6439 22.1952 28.2705 21.3222 29.1351 20.7376C29.855 20.252 30.6955 19.9954 31.5659 19.9954C31.8896 19.9954 32.1518 19.7331 32.1518 19.4094C32.1518 19.0858 31.8895 18.8235 31.5659 18.8235Z" fill="#EEEEEE"/>
<path d="M16.415 17.1539C18.1211 17.1539 19.7763 17.7648 21.0759 18.8742C22.3613 19.9717 23.2233 21.4863 23.503 23.1391C23.5514 23.425 23.7994 23.6273 24.0801 23.6273C24.1125 23.6273 24.1455 23.6246 24.1786 23.619C24.4976 23.565 24.7125 23.2625 24.6585 22.9435C24.333 21.0203 23.3309 19.2586 21.8368 17.9831C20.3253 16.6927 18.3998 15.9821 16.4151 15.9821C16.0914 15.9821 15.8291 16.2443 15.8291 16.568C15.8291 16.8917 16.0913 17.1539 16.415 17.1539Z" fill="#EEEEEE"/>
</svg>
