<svg width="55" height="56" viewBox="0 0 55 56" fill="none" xmlns="http://www.w3.org/2000/svg">
<circle cx="27.5" cy="27.5" r="27.5" fill="#32E0C4"/>
<g filter="url(#filter0_d)">
<g clip-path="url(#clip0)">
<path d="M26.9944 17.9621C19.7043 17.9621 14.8182 25.5746 17.8975 32.2187C20.2133 37.2154 26.2234 39.4177 31.2188 37.1024C36.2156 34.7868 38.4178 28.7766 36.1025 23.7813C34.4041 20.1166 30.7784 17.9621 26.9944 17.9621ZM23.2927 29.6181C23.554 29.8793 23.554 30.3028 23.2927 30.5641C23.0315 30.8252 22.6081 30.8252 22.3469 30.5641L20.2558 28.4729C19.9948 28.2118 19.9946 27.7883 20.2558 27.527L22.3469 25.4359C22.6082 25.1748 23.0316 25.1749 23.2927 25.4359C23.554 25.6972 23.554 26.1206 23.2927 26.3818L21.6746 27.9999L23.2927 29.6181ZM29.2486 25.4966L25.9044 31.1817C25.7172 31.5 25.3073 31.6064 24.9888 31.4191C24.6704 31.2318 24.564 30.8218 24.7514 30.5034L28.0956 24.8183C28.2829 24.4999 28.693 24.3938 29.0112 24.5809C29.3296 24.7682 29.436 25.1781 29.2486 25.4966ZM33.6608 28.4729L31.5696 30.5641C31.3084 30.8253 30.885 30.8252 30.6238 30.5641C30.3626 30.303 30.3626 29.8795 30.6238 29.6182L32.242 28.0001L30.6238 26.382C30.3626 26.1208 30.3626 25.6973 30.6238 25.4361C30.885 25.175 31.3085 25.175 31.5696 25.4361L33.6608 27.5272C33.9218 27.7881 33.922 28.2117 33.6608 28.4729Z" fill="#EEEEEE"/>
<path d="M45.5545 34.7127L42.4109 32.2555C43.1752 29.4867 43.1766 26.5183 42.4109 23.7445L45.5545 21.2873C45.817 21.0825 45.8881 20.7147 45.7217 20.4262L42.9201 15.5738C42.7529 15.2845 42.3992 15.1633 42.0907 15.2879L38.3862 16.7827C36.3479 14.7118 33.818 13.2496 31.0206 12.5255L30.4638 8.5752C30.4178 8.24496 30.1352 8 29.8016 8H24.1984C23.8648 8 23.5822 8.24496 23.5363 8.5752L22.9794 12.5255C20.182 13.2496 17.6521 14.7118 15.6138 16.7827L11.9101 15.2879C11.6008 15.1633 11.2471 15.2853 11.0799 15.5738L8.27833 20.4262C8.11196 20.7147 8.18302 21.0825 8.44554 21.2873L11.5891 23.7445C10.8249 26.5133 10.8234 29.4817 11.5891 32.2555L8.44554 34.7127C8.18302 34.9175 8.11196 35.2853 8.27833 35.5738L11.0799 40.4262C11.2471 40.7147 11.6008 40.8367 11.9101 40.7121L15.6138 39.2173C17.6521 41.2882 20.182 42.7504 22.9794 43.4745L23.5363 47.4248C23.5822 47.755 23.8648 48 24.1984 48H29.8016C30.1352 48 30.4178 47.755 30.4638 47.4248L31.0206 43.4745C33.818 42.7504 36.3479 41.2882 38.3862 39.2173L42.0907 40.7121C42.3992 40.8367 42.7529 40.7147 42.9201 40.4262L45.7217 35.5738C45.8881 35.2853 45.817 34.9175 45.5545 34.7127ZM31.7812 38.3162C29.0419 39.5858 25.9565 39.7054 23.0934 38.6558C17.169 36.4839 14.1712 30.0207 16.3442 24.0935C18.5392 18.1063 25.0734 15.1837 30.9137 17.3246C33.7652 18.37 36.039 20.4633 37.3161 23.2188C39.943 28.8866 37.4475 35.6899 31.7812 38.3162Z" fill="#EEEEEE"/>
</g>
</g>
<defs>
<filter id="filter0_d" x="7" y="8" width="48" height="48" filterUnits="userSpaceOnUse" color-interpolation-filters="sRGB">
<feFlood flood-opacity="0" result="BackgroundImageFix"/>
<feColorMatrix in="SourceAlpha" type="matrix" values="0 0 0 0 0 0 0 0 0 0 0 0 0 0 0 0 0 0 127 0"/>
<feOffset dx="4" dy="4"/>
<feGaussianBlur stdDeviation="2"/>
<feColorMatrix type="matrix" values="0 0 0 0 0 0 0 0 0 0 0 0 0 0 0 0 0 0 0.25 0"/>
<feBlend mode="normal" in2="BackgroundImageFix" result="effect1_dropShadow"/>
<feBlend mode="normal" in="SourceGraphic" in2="effect1_dropShadow" result="shape"/>
</filter>
<clipPath id="clip0">
<rect width="40" height="40" fill="white" transform="translate(7 8)"/>
</clipPath>
</defs>
</svg>
