<svg width="55" height="55" viewBox="0 0 55 55" fill="none" xmlns="http://www.w3.org/2000/svg">
<circle cx="27.5" cy="27.5" r="27.5" fill="#32E0C4"/>
<path d="M46.8281 8H42.0625C41.4148 8 40.8906 8.52414 40.8906 9.17188V10.3438H31.2998C30.8144 8.98266 29.5258 8 28 8C26.4742 8 25.1856 8.98266 24.7002 10.3438H15.1094V9.17188C15.1094 8.52414 14.5852 8 13.9375 8H9.17188C8.52414 8 8 8.52414 8 9.17188V13.8594C8 14.5071 8.52414 15.0312 9.17188 15.0312H13.9375C14.5852 15.0312 15.1094 14.5071 15.1094 13.8594V12.6719H19.9222C15.8552 15.2126 13.1736 19.675 12.853 24.673C11.447 25.1333 10.4219 26.4422 10.4219 28C10.4219 29.9386 11.9989 31.5156 13.9375 31.5156C15.8761 31.5156 17.4531 29.9386 17.4531 28C17.4531 26.5047 16.5109 25.2334 15.1922 24.726C15.592 19.1538 19.4802 14.4572 24.8885 13.1172C25.4734 14.2482 26.6412 15.0312 28 15.0312C29.3588 15.0312 30.5266 14.2482 31.1115 13.1172C36.5198 14.4571 40.408 19.1537 40.8078 24.7259C39.4891 25.2334 38.5469 26.5047 38.5469 28C38.5469 29.9386 40.1239 31.5156 42.0625 31.5156C44.0011 31.5156 45.5781 29.9386 45.5781 28C45.5781 26.4422 44.553 25.1333 43.147 24.673C42.8264 19.675 40.1448 15.2282 36.0778 12.6875H40.8906V13.8594C40.8906 14.5071 41.4148 15.0312 42.0625 15.0312H46.8281C47.4759 15.0312 48 14.5071 48 13.8594V9.17188C48 8.52414 47.4759 8 46.8281 8Z" fill="#EEEEEE"/>
<path d="M35.9727 46.5465C35.3597 44.6708 33.5938 43.2344 31.5156 43.2344H24.4844C22.4063 43.2344 20.6403 44.6708 20.0273 46.5465C19.791 47.2697 20.4062 48 21.1672 48H34.8328C35.5937 48 36.209 47.2697 35.9727 46.5465Z" fill="#EEEEEE"/>
<path d="M38.35 32.0375L29.1719 18.2703V29.3878C30.533 29.8732 31.5156 31.1617 31.5156 32.6875C31.5156 34.6261 29.9386 36.2032 28 36.2032C26.0614 36.2032 24.4844 34.6261 24.4844 32.6875C24.4844 31.1617 25.467 29.8732 26.8281 29.3878V18.2703L17.65 32.0375C17.3398 32.5021 17.4016 33.1213 17.7965 33.5161C19.9478 35.6674 21.323 38.4389 21.8537 41.4118C22.6677 41.0816 23.5531 40.8907 24.4844 40.8907H31.5156C32.4469 40.8907 33.3323 41.0815 34.1463 41.4117C34.677 38.4386 36.0522 35.6674 38.2035 33.5161C38.5984 33.1213 38.6602 32.5021 38.35 32.0375Z" fill="#EEEEEE"/>
<path d="M28 31.5156C27.3534 31.5156 26.8281 32.0409 26.8281 32.6875C26.8281 33.3341 27.3534 33.8594 28 33.8594C28.6466 33.8594 29.1719 33.3341 29.1719 32.6875C29.1719 32.0409 28.6466 31.5156 28 31.5156Z" fill="#EEEEEE"/>
</svg>
